<svg version="1.1" id="Capa_1" height="75" width="75" fill="#000" x="0px" y="0px" viewBox="0 0 512 512"><g><g><g><path d="M454.967,189.535l-166.976-70.297v-12.572c0-5.891-4.776-10.667-10.667-10.667h-10.667V74.666 c0-5.891-4.776-10.667-10.667-10.667c-11.782,0-21.333-9.551-21.333-21.333c0-11.782,9.551-21.333,21.333-21.333 s21.333,9.551,21.333,21.333h21.333c-0.005-19.452-13.166-36.438-32-41.301c-22.816-5.891-46.087,7.829-51.979,30.645 c-5.891,22.816,7.829,46.087,30.645,51.978v12.011h-10.667c-5.891,0-10.667,4.776-10.667,10.667v12.573L57.026,189.535 c-8.775,3.653-14.479,12.239-14.447,21.743c0.044,12.96,10.586,23.431,23.546,23.387h112.718l-15.214,13.312 c-2.311,2.025-3.637,4.948-3.637,8.021v245.333c0,5.891,4.776,10.667,10.667,10.667h170.667c5.891,0,10.667-4.776,10.667-10.667 V255.999c-0.001-2.829-1.125-5.541-3.125-7.541l-13.792-13.792h110.784c9.509,0.036,18.099-5.669,21.754-14.447 C472.593,208.254,466.932,194.517,454.967,189.535z M445.858,213.333H313.741l-7.541-7.541l-15.083,15.083l39.541,39.541v230.251 H181.325V260.842l81.696-71.531l-14.059-16l-46.304,40.516v-0.495H66.125c-0.912,0.029-1.741-0.525-2.063-1.378 c-0.416-1.102,0.14-2.333,1.242-2.75l167.807-70.663c0.507,0.074,1.021,0.125,1.548,0.125h42.667 c0.527,0,1.042-0.051,1.549-0.125l9.754,4.107c4.74,23.017-13.562,52.539-28.401,71.108c-1.369-0.276-2.785-0.424-4.235-0.424 c-11.782,0-21.333,9.551-21.333,21.333c0,11.782,9.551,21.333,21.333,21.333s21.333-9.551,21.333-21.333 c0-2.371-0.403-4.645-1.117-6.776c13.756-16.998,33.803-46.676,34.497-75.946l135.985,57.26c0.858,0.324,1.413,1.159,1.379,2.075 C448.025,212.458,447.035,213.377,445.858,213.333z"></path><rect x="287.991" y="447.999" width="21.333" height="21.333"></rect><path d="M266.658,289.344v-12.011h-21.333v12.011c-18.402,4.737-32,21.441-32,41.322c0,23.564,19.103,42.667,42.667,42.667 c11.782,0,21.333,9.551,21.333,21.333s-9.551,21.333-21.333,21.333s-21.333-9.551-21.333-21.333h-21.333 c0,19.881,13.598,36.586,32,41.322v12.011h21.333v-12.011c18.402-4.737,32-21.441,32-41.322 c0-23.564-19.103-42.667-42.667-42.667c-11.782,0-21.333-9.551-21.333-21.333c0-11.782,9.551-21.333,21.333-21.333 s21.333,9.551,21.333,21.333h21.333C298.658,310.785,285.06,294.08,266.658,289.344z"></path></g></g></g><g></g><g></g><g></g><g></g><g></g><g></g><g></g><g></g><g></g><g></g><g></g><g></g><g></g><g></g><g></g></svg>