<?xml version="1.0" encoding="iso-8859-1"?>
<!-- Generator: Adobe Illustrator 16.0.0, SVG Export Plug-In . SVG Version: 6.00 Build 0)  -->
<!DOCTYPE svg PUBLIC "-//W3C//DTD SVG 1.1//EN" "http://www.w3.org/Graphics/SVG/1.1/DTD/svg11.dtd">
<svg version="1.1" id="Capa_1" xmlns="http://www.w3.org/2000/svg" xmlns:xlink="http://www.w3.org/1999/xlink" x="0px" y="0px"
	 width="495.757px" height="495.757px" viewBox="0 0 495.757 495.757" style="enable-background:new 0 0 495.757 495.757;"
	 xml:space="preserve">
<g>
	<g>
		<path d="M101.643,128.323H99.46L16.07,163c-7.32,3.042-13.253,11.939-13.253,19.864v295.669c0,7.926,6.427,14.354,14.353,14.354
			h84.021c-1.346-3.241-2.061-6.743-2.058-10.469l0.23-338.669C99.365,139.038,100.225,133.654,101.643,128.323z"/>
		<path d="M119.012,492.887c2.414,1.788,5.417,2.87,8.724,2.87c0.031,0,0.063,0,0.095,0l305.744-1.61
			c7.924-0.052,15.168-6.135,16.172-13.996l43.076-337.049c1.004-7.863-4.605-14.778-12.533-14.778H235.334h-0.368
			c-7.926,0-10.842-4.843-6.511-11.482l40.608-61.706c4.331-6.639,2.462-15.536-4.174-19.873l-50.391-32.92
			C212.073,0.758,209.343,0,206.643,0c-4.688,0-9.283,2.225-12.048,6.424l-72.979,110.874c-1.929,2.934-3.674,6.875-5.049,11.026
			c-1.725,5.221-2.848,10.787-2.851,15.203l-0.229,338.435C113.483,486.545,115.668,490.411,119.012,492.887z"/>
	</g>
</g>
<g>
</g>
<g>
</g>
<g>
</g>
<g>
</g>
<g>
</g>
<g>
</g>
<g>
</g>
<g>
</g>
<g>
</g>
<g>
</g>
<g>
</g>
<g>
</g>
<g>
</g>
<g>
</g>
<g>
</g>
</svg>
