<svg version="1.1" id="Capa_1"  x="0px" y="0px" viewBox="0 0 253.121 253.121"><path d="M253.121,126.561C253.121,56.775,196.346,0,126.561,0C93.741,0,62.628,12.509,38.954,35.222 c-2.989,2.868-3.087,7.615-0.22,10.604c2.867,2.989,7.615,3.086,10.604,0.22C70.206,26.026,97.631,15,126.561,15 c61.515,0,111.561,50.046,111.561,111.561c0,27.975-10.409,54.736-29.311,75.355c-21.092,23.009-51.071,36.206-82.25,36.206 c-29.913,0-58.723-12.148-79.64-33.454c0.124-0.536,0.262-1.066,0.398-1.597c0.108-0.423,0.208-0.849,0.323-1.269 c0.176-0.64,0.372-1.271,0.565-1.903c0.115-0.375,0.219-0.755,0.339-1.127c0.234-0.725,0.489-1.439,0.745-2.153 c0.097-0.27,0.184-0.545,0.284-0.814c0.729-1.962,1.54-3.881,2.427-5.753c0.133-0.28,0.278-0.552,0.414-0.83 c0.318-0.65,0.636-1.3,0.973-1.938c0.178-0.337,0.369-0.666,0.553-1c0.311-0.567,0.619-1.136,0.944-1.693 c0.209-0.359,0.432-0.709,0.647-1.064c0.316-0.521,0.63-1.043,0.958-1.555c0.234-0.364,0.479-0.718,0.719-1.077 c0.328-0.49,0.653-0.982,0.992-1.464c0.255-0.363,0.521-0.716,0.783-1.074c0.34-0.464,0.678-0.929,1.028-1.384 c0.275-0.358,0.561-0.708,0.843-1.06c0.353-0.441,0.705-0.884,1.068-1.316c0.293-0.35,0.595-0.691,0.895-1.035 c0.367-0.421,0.734-0.842,1.111-1.255c0.31-0.34,0.628-0.671,0.944-1.005c0.382-0.402,0.764-0.804,1.154-1.197 c0.326-0.328,0.658-0.648,0.989-0.969c0.396-0.383,0.793-0.766,1.198-1.14c0.341-0.315,0.687-0.624,1.033-0.932 c0.409-0.365,0.821-0.727,1.238-1.082c0.355-0.302,0.715-0.599,1.077-0.894c0.423-0.345,0.848-0.688,1.278-1.024 c0.369-0.288,0.742-0.571,1.116-0.852c0.436-0.326,0.874-0.649,1.317-0.965c0.383-0.274,0.768-0.543,1.156-0.809 c0.448-0.307,0.899-0.609,1.353-0.906c0.395-0.258,0.792-0.512,1.192-0.763c0.46-0.288,0.924-0.57,1.391-0.848 c0.406-0.241,0.814-0.481,1.225-0.714c0.472-0.269,0.949-0.53,1.428-0.788c0.417-0.225,0.835-0.448,1.256-0.665 c0.484-0.249,0.973-0.489,1.463-0.727c0.427-0.207,0.854-0.414,1.285-0.613c0.497-0.229,0.998-0.449,1.5-0.667 c0.435-0.189,0.869-0.378,1.307-0.558c0.51-0.209,1.024-0.408,1.539-0.605c0.442-0.17,0.882-0.341,1.328-0.502 c0.522-0.189,1.05-0.365,1.577-0.542c0.447-0.15,0.893-0.303,1.344-0.445c0.535-0.168,1.076-0.323,1.617-0.478 c0.451-0.13,0.901-0.265,1.356-0.386c0.551-0.147,1.107-0.279,1.663-0.414c0.452-0.109,0.903-0.224,1.358-0.325 c0.568-0.126,1.143-0.235,1.716-0.347c0.45-0.088,0.898-0.184,1.351-0.264c0.591-0.104,1.188-0.19,1.783-0.28 c0.442-0.067,0.881-0.142,1.325-0.2c0.627-0.083,1.261-0.145,1.893-0.212c0.418-0.044,0.834-0.098,1.254-0.135 c0.702-0.062,1.411-0.1,2.118-0.142c0.355-0.021,0.708-0.053,1.064-0.069c1.066-0.047,2.137-0.072,3.214-0.072h18.463 c21.67,0,42.011,9.609,55.807,26.364c2.632,3.197,7.36,3.655,10.557,1.022c3.197-2.633,3.655-7.359,1.022-10.557 c-11.759-14.28-27.46-24.253-44.882-28.888c9.915-8.785,16.181-21.6,16.181-35.857c0-26.421-21.495-47.917-47.917-47.917 s-47.917,21.495-47.917,47.917c0,14.257,6.266,27.071,16.18,35.856c-0.246,0.066-0.494,0.128-0.74,0.195 c-1.028,0.283-2.048,0.586-3.061,0.906c-0.124,0.039-0.251,0.073-0.375,0.112c-1.136,0.364-2.26,0.753-3.377,1.161 c-0.348,0.127-0.69,0.267-1.036,0.399c-0.765,0.291-1.529,0.586-2.284,0.899c-0.419,0.173-0.832,0.356-1.248,0.536 c-0.675,0.292-1.349,0.587-2.015,0.895c-0.435,0.201-0.865,0.408-1.296,0.616c-0.642,0.31-1.279,0.626-1.913,0.951 c-0.428,0.219-0.855,0.441-1.279,0.668c-0.635,0.339-1.264,0.688-1.89,1.043c-0.404,0.229-0.809,0.456-1.209,0.691 c-0.658,0.387-1.307,0.787-1.955,1.191c-0.353,0.22-0.709,0.434-1.059,0.659c-0.804,0.517-1.597,1.052-2.383,1.595 c-0.18,0.124-0.364,0.241-0.543,0.367c-0.96,0.674-1.905,1.368-2.837,2.08c-0.27,0.206-0.532,0.423-0.8,0.632 c-0.656,0.514-1.31,1.031-1.952,1.563c-0.341,0.283-0.675,0.575-1.011,0.863c-0.558,0.477-1.113,0.957-1.658,1.448 c-0.352,0.317-0.698,0.639-1.045,0.962c-0.518,0.482-1.032,0.969-1.539,1.464c-0.344,0.336-0.686,0.674-1.025,1.016 c-0.501,0.506-0.994,1.019-1.482,1.537c-0.323,0.342-0.646,0.682-0.963,1.03c-0.505,0.553-0.999,1.117-1.49,1.683 c-0.281,0.324-0.567,0.644-0.844,0.973c-0.579,0.688-1.144,1.391-1.702,2.098c-0.172,0.218-0.351,0.429-0.521,0.649 c-0.721,0.93-1.423,1.876-2.107,2.837c-0.182,0.256-0.354,0.519-0.533,0.777c-0.496,0.713-0.988,1.43-1.463,2.159 c-0.24,0.369-0.47,0.744-0.705,1.117c-0.399,0.633-0.795,1.268-1.178,1.912c-0.245,0.411-0.482,0.827-0.72,1.243 c-0.357,0.623-0.708,1.25-1.05,1.883c-0.233,0.431-0.462,0.865-0.688,1.3c-0.331,0.638-0.653,1.282-0.968,1.929 c-0.213,0.436-0.425,0.871-0.631,1.311c-0.318,0.682-0.623,1.371-0.924,2.063c-0.18,0.414-0.365,0.824-0.54,1.242 c-0.337,0.807-0.655,1.624-0.969,2.444c-0.119,0.31-0.246,0.616-0.361,0.928c-0.017,0.046-0.036,0.09-0.053,0.136 C22.167,172.148,15,149.772,15,126.561c0-4.142-3.358-7.5-7.5-7.5s-7.5,3.358-7.5,7.5c0,31.738,11.81,62.099,33.253,85.491 c23.926,26.1,57.936,41.069,93.307,41.069c35.373,0,69.382-14.969,93.308-41.07c0.002-0.002,0.004-0.005,0.006-0.007 C241.314,188.653,253.121,158.295,253.121,126.561z M126.561,67.938c18.15,0,32.917,14.766,32.917,32.917 s-14.766,32.917-32.917,32.917s-32.917-14.766-32.917-32.917S108.41,67.938,126.561,67.938z"></path><g></g><g></g><g></g><g></g><g></g><g></g><g></g><g></g><g></g><g></g><g></g><g></g><g></g><g></g><g></g></svg>